<svg xmlns="http://www.w3.org/2000/svg" viewBox="0 0 256 256" role="img" aria-label="Baphomet">
  <defs>
    <linearGradient id="bg" x1="0%" y1="0%" x2="100%" y2="100%">
      <stop offset="0%" stop-color="#fbbf24"/>
      <stop offset="100%" stop-color="#78350f"/>
    </linearGradient>
    <linearGradient id="skin" x1="0%" y1="0%" x2="0%" y2="100%">
      <stop offset="0%" stop-color="#d6d3d1"/>
      <stop offset="100%" stop-color="#78716c"/>
    </linearGradient>
  </defs>
  <rect width="256" height="256" fill="url(#bg)"/>
  <ellipse cx="128" cy="228" rx="98" ry="52" fill="#451a03"/>
  <path d="M70 175 L186 175 L198 230 L58 230 Z" fill="#292524"/>
  <path d="M88 58 L98 92 L78 92 Z" fill="#d6d3d1"/>
  <path d="M168 58 L158 92 L178 92 Z" fill="#d6d3d1"/>
  <ellipse cx="128" cy="118" rx="48" ry="54" fill="url(#skin)"/>
  <ellipse cx="108" cy="118" rx="8" ry="10" fill="#1c1917"/>
  <ellipse cx="148" cy="118" rx="8" ry="10" fill="#1c1917"/>
  <circle cx="108" cy="118" r="3" fill="#fbbf24"/>
  <circle cx="148" cy="118" r="3" fill="#fbbf24"/>
  <path d="M118 148 Q128 156 138 148" fill="none" stroke="#44403c" stroke-width="2.5" stroke-linecap="round"/>
  <path d="M128 78 L128 98" stroke="#57534e" stroke-width="2"/>
  <circle cx="128" cy="72" r="6" fill="none" stroke="#fbbf24" stroke-width="2"/>
  <path d="M118 72 L138 72" stroke="#fbbf24" stroke-width="2"/>
  <path d="M128 66 L128 78" stroke="#fbbf24" stroke-width="2"/>
</svg>
