<svg xmlns="http://www.w3.org/2000/svg" viewBox="0 0 256 256" role="img" aria-label="Lucifer">
  <defs>
    <linearGradient id="bg" x1="0%" y1="0%" x2="100%" y2="100%">
      <stop offset="0%" stop-color="#ef4444"/>
      <stop offset="100%" stop-color="#7f1d1d"/>
    </linearGradient>
    <linearGradient id="skin" x1="0%" y1="0%" x2="0%" y2="100%">
      <stop offset="0%" stop-color="#ffe4cc"/>
      <stop offset="100%" stop-color="#d4a574"/>
    </linearGradient>
  </defs>
  <rect width="256" height="256" fill="url(#bg)"/>
  <ellipse cx="128" cy="228" rx="98" ry="52" fill="#450a0a"/>
  <path d="M76 175 L180 175 L192 230 L64 230 Z" fill="#1c1917"/>
  <path d="M92 62 L102 88 L88 88 Z" fill="#fca5a5"/>
  <path d="M164 62 L154 88 L168 88 Z" fill="#fca5a5"/>
  <ellipse cx="128" cy="115" rx="50" ry="56" fill="url(#skin)"/>
  <path d="M86 88 C86 58 170 58 170 88 C170 78 152 68 128 68 C104 68 86 78 86 88Z" fill="#292524"/>
  <ellipse cx="108" cy="115" rx="6" ry="7" fill="#dc2626"/>
  <ellipse cx="148" cy="115" rx="6" ry="7" fill="#dc2626"/>
  <circle cx="110" cy="113" r="2" fill="#fef2f2"/>
  <circle cx="150" cy="113" r="2" fill="#fef2f2"/>
  <path d="M118 142 Q128 150 138 142" fill="none" stroke="#7f1d1d" stroke-width="2.5" stroke-linecap="round"/>
</svg>
