<svg xmlns="http://www.w3.org/2000/svg" viewBox="0 0 256 256" role="img" aria-label="Satan">
  <defs>
    <linearGradient id="bg" x1="0%" y1="0%" x2="100%" y2="100%">
      <stop offset="0%" stop-color="#fb7185"/>
      <stop offset="100%" stop-color="#881337"/>
    </linearGradient>
    <linearGradient id="skin" x1="0%" y1="0%" x2="0%" y2="100%">
      <stop offset="0%" stop-color="#e8c4a0"/>
      <stop offset="100%" stop-color="#a16207"/>
    </linearGradient>
  </defs>
  <rect width="256" height="256" fill="url(#bg)"/>
  <ellipse cx="128" cy="228" rx="98" ry="52" fill="#4c0519"/>
  <path d="M72 175 L184 175 L196 230 L60 230 Z" fill="#292524"/>
  <ellipse cx="128" cy="112" rx="52" ry="58" fill="url(#skin)"/>
  <path d="M82 88 C82 55 174 55 174 88 C174 72 152 65 128 65 C104 65 82 72 82 88Z" fill="#1c1917"/>
  <ellipse cx="108" cy="112" rx="6" ry="7" fill="#1c1917"/>
  <ellipse cx="148" cy="112" rx="6" ry="7" fill="#1c1917"/>
  <circle cx="110" cy="110" r="2" fill="#fca5a5"/>
  <circle cx="150" cy="110" r="2" fill="#fca5a5"/>
  <path d="M118 138 L128 148 L138 138" fill="none" stroke="#44403c" stroke-width="2.5" stroke-linecap="round"/>
  <path d="M118 152 Q128 162 138 152 Q128 168 118 152Z" fill="#292524"/>
  <path d="M122 152 L134 152" stroke="#57534e" stroke-width="1.5"/>
</svg>
