<svg xmlns="http://www.w3.org/2000/svg" viewBox="0 0 256 256" role="img" aria-label="Sisamouth">
  <defs>
    <linearGradient id="bg" x1="0%" y1="0%" x2="100%" y2="100%">
      <stop offset="0%" stop-color="#fb923c"/>
      <stop offset="100%" stop-color="#c2410c"/>
    </linearGradient>
    <linearGradient id="skin" x1="0%" y1="0%" x2="0%" y2="100%">
      <stop offset="0%" stop-color="#f5d0a9"/>
      <stop offset="100%" stop-color="#c9956a"/>
    </linearGradient>
  </defs>
  <rect width="256" height="256" fill="url(#bg)"/>
  <ellipse cx="128" cy="228" rx="98" ry="52" fill="#9a3412"/>
  <path d="M90 178 L166 178 L174 228 L82 228 Z" fill="#1c1917"/>
  <path d="M110 178 L146 178 L142 210 L114 210 Z" fill="#fff"/>
  <ellipse cx="128" cy="112" rx="52" ry="58" fill="url(#skin)"/>
  <path d="M76 95 C90 55 166 55 180 95 C175 70 145 62 128 62 C111 62 81 70 76 95Z" fill="#292524"/>
  <path d="M76 95 C82 120 100 130 128 130 C156 130 174 120 180 95" fill="#44403c"/>
  <ellipse cx="108" cy="112" rx="5" ry="6" fill="#292524"/>
  <ellipse cx="148" cy="112" rx="5" ry="6" fill="#292524"/>
  <path d="M118 138 Q128 146 138 138" fill="none" stroke="#7c2d12" stroke-width="2.5" stroke-linecap="round"/>
  <rect x="188" y="150" width="14" height="50" rx="7" fill="#525252"/>
  <circle cx="195" cy="145" r="12" fill="#737373"/>
</svg>
