<svg xmlns="http://www.w3.org/2000/svg" viewBox="0 0 256 256" role="img" aria-label="Vishnu">
  <defs>
    <linearGradient id="bg" x1="0%" y1="0%" x2="100%" y2="100%">
      <stop offset="0%" stop-color="#3b82f6"/>
      <stop offset="100%" stop-color="#1e3a8a"/>
    </linearGradient>
    <linearGradient id="skin" x1="0%" y1="0%" x2="0%" y2="100%">
      <stop offset="0%" stop-color="#93c5fd"/>
      <stop offset="100%" stop-color="#2563eb"/>
    </linearGradient>
    <radialGradient id="halo" cx="50%" cy="30%" r="55%">
      <stop offset="0%" stop-color="#fde68a" stop-opacity="0.85"/>
      <stop offset="100%" stop-color="#f59e0b" stop-opacity="0"/>
    </radialGradient>
  </defs>
  <rect width="256" height="256" fill="url(#bg)"/>
  <circle cx="128" cy="88" r="72" fill="url(#halo)"/>
  <path d="M68 230 L188 230 L176 172 L80 172 Z" fill="#fbbf24"/>
  <path d="M108 172 L148 172 L142 228 L114 228 Z" fill="#fef3c7"/>
  <ellipse cx="128" cy="118" rx="50" ry="56" fill="url(#skin)"/>
  <path d="M78 78 C78 52 178 52 178 78 C178 68 158 58 128 58 C98 58 78 68 78 78Z" fill="#1e40af"/>
  <path d="M98 58 L128 38 L158 58 L148 72 L108 72 Z" fill="#fbbf24"/>
  <circle cx="128" cy="44" r="6" fill="#fef08a"/>
  <ellipse cx="108" cy="118" rx="5" ry="6" fill="#1e3a8a"/>
  <ellipse cx="148" cy="118" rx="5" ry="6" fill="#1e3a8a"/>
  <path d="M118 140 Q128 148 138 140" fill="none" stroke="#1e40af" stroke-width="2.5" stroke-linecap="round"/>
  <circle cx="196" cy="128" r="16" fill="none" stroke="#fde68a" stroke-width="4"/>
  <circle cx="196" cy="128" r="6" fill="#fef08a"/>
  <path d="M60 128 C48 128 48 140 60 140" fill="none" stroke="#fef3c7" stroke-width="5" stroke-linecap="round"/>
</svg>
